<svg xmlns="http://www.w3.org/2000/svg" enable-background="new 0 0 512 512" viewBox="0 0 512 512"><path fill="#020202" d="M464.1,16H47.9C30.3,16,16,30.3,16,47.9v416.1c0,17.6,14.3,31.9,31.9,31.9h416.1c17.6,0,31.9-14.3,31.9-31.9
		V47.9C496,30.3,481.7,16,464.1,16z M398.3,186.2c-0.1,0.1-0.2,0.1-0.2,0.2c0.1,1.6,0.2,3.3,0.2,4.9c0.1,1.8,0.1,3.5,0.1,5.3
		c0,108.6-88.1,196.7-196.7,196.7c-37.3,0-72.2-10.4-102-28.5c0,0,56.3,4.8,95-31.2c0,0-46-6-63.3-48.7c0,0,20,3.3,32,0
		c0,0-55.3-22.7-54-68.7c0,0,19.3,8,28.7,8c0,0-49.3-34-20-97.3c0,0,38,73.3,142,74l0.1-0.1c-0.8-4.1-1.1-8.3-1.1-12.6
		c0-38.5,31.2-69.7,69.7-69.7c19.7,0,37.5,8.2,50.1,21.3l0.5-0.3c0,0,4.1-1.1,9.8-2.7c9.6-2.8,23.5-7,28.9-9.9c0,0-5.6,21.3-23,33.5
		c-0.5,0.4-1.1,0.8-1.7,1.1c0,0,0.7,0,1.9-0.1c5.3-0.3,20.7-1.7,34.8-9.3C429.6,152.9,415,172.4,398.3,186.2z"/></svg>